<?xml version="1.0" standalone="no"?><!DOCTYPE svg PUBLIC "-//W3C//DTD SVG 1.1//EN" "http://www.w3.org/Graphics/SVG/1.1/DTD/svg11.dtd"><svg t="1723002482751" class="icon" viewBox="0 0 1024 1024" version="1.1" xmlns="http://www.w3.org/2000/svg" p-id="16084" xmlns:xlink="http://www.w3.org/1999/xlink" width="200" height="200"><path d="M576 64m64 0l0 0q64 0 64 64l0 192q0 64-64 64l0 0q-64 0-64-64l0-192q0-64 64-64Z" fill="#0a66c2" p-id="16085"></path><path d="M813.139435 120.570039m36.708892 52.425731l0 0q36.708892 52.425731-15.716839 89.134623l-157.277192 110.126676q-52.425731 36.708892-89.134623-15.716839l0 0q-36.708892-52.425731 15.716839-89.134623l157.277192-110.126676q52.425731-36.708892 89.134623 15.716839Z" fill="#0a66c2" p-id="16086"></path><path d="M320 64m64 0l0 0q64 0 64 64l0 192q0 64-64 64l0 0q-64 0-64-64l0-192q0-64 64-64Z" fill="#0a66c2" p-id="16087"></path><path d="M137.890781 225.549501m36.708892-52.425731l0 0q36.708892-52.425731 89.134623-15.716839l157.277192 110.126676q52.425731 36.708892 15.716839 89.134623l0 0q-36.708892 52.425731-89.134623 15.716839l-157.277192-110.126676q-52.425731-36.708892-15.716839-89.134623Z" fill="#0a66c2" p-id="16088"></path><path d="M32.530033 449.221405m30.04618-56.508646l0 0q30.04618-56.508646 86.554825-26.462466l169.525938 90.13854q56.508646 30.04618 26.462466 86.554826l0 0q-30.04618 56.508646-86.554826 26.462466l-169.525938-90.13854q-56.508646-30.04618-26.462465-86.554826Z" fill="#0a66c2" p-id="16089"></path><path d="M89.674676 685.857198m-29.055392-57.024417l0 0q-29.055392-57.024418 27.969026-86.07981l171.073252-87.166176q57.024418-29.055392 86.07981 27.969026l0 0q29.055392 57.024418-27.969026 86.079809l-171.073253 87.166176q-57.024418 29.055392-86.079809-27.969025Z" fill="#0a66c2" p-id="16090"></path><path d="M989.150211 449.211938m-30.04618-56.508646l0 0q-30.04618-56.508646-86.554826-26.462466l-169.525938 90.13854q-56.508646 30.04618-26.462465 86.554826l0 0q30.04618 56.508646 86.554826 26.462466l169.525937-90.13854q56.508646-30.04618 26.462466-86.554826Z" fill="#0a66c2" p-id="16091"></path><path d="M932.005568 685.847731m29.055392-57.024417l0 0q29.055392-57.024418-27.969026-86.07981l-171.073252-87.166176q-57.024418-29.055392-86.07981 27.969026l0 0q-29.055392 57.024418 27.969026 86.079809l171.073252 87.166176q57.024418 29.055392 86.07981-27.969025Z" fill="#0a66c2" p-id="16092"></path><path d="M320 640m64 0l0 0q64 0 64 64l0 192q0 64-64 64l0 0q-64 0-64-64l0-192q0-64 64-64Z" fill="#0a66c2" p-id="16093"></path><path d="M399.672144 615.022465m36.708892 52.425731l0 0q36.708892 52.425731-15.716839 89.134623l-157.277192 110.126675q-52.425731 36.708892-89.134623-15.716838l0 0q-36.708892-52.425731 15.716839-89.134623l157.277192-110.126676q52.425731-36.708892 89.134623 15.716839Z" fill="#0a66c2" p-id="16094"></path><path d="M576 640m64 0l0 0q64 0 64 64l0 192q0 64-64 64l0 0q-64 0-64-64l0-192q0-64 64-64Z" fill="#0a66c2" p-id="16095"></path><path d="M551.330781 719.757501m36.708892-52.425731l0 0q36.708892-52.425731 89.134623-15.716839l157.277192 110.126676q52.425731 36.708892 15.716839 89.134623l0 0q-36.708892 52.425731-89.134623 15.716839l-157.277192-110.126676q-52.425731-36.708892-15.716839-89.134623Z" fill="#0a66c2" p-id="16096"></path><path d="M416.128 415.872m32 0l128 0q32 0 32 32l0 128q0 32-32 32l-128 0q-32 0-32-32l0-128q0-32 32-32Z" fill="#0a66c2" p-id="16097"></path></svg>